<?xml version="1.0" encoding="utf-8"?><svg version="1.1" id="Layer_1" xmlns="http://www.w3.org/2000/svg" xmlns:xlink="http://www.w3.org/1999/xlink" x="0px" y="0px" viewBox="0 0 122.88 68.52" style="enable-background:new 0 0 122.88 68.52" xml:space="preserve"><g><path d="M52.33,11.39c2.21-3.14,4.99-5.64,8.11-7.49c3.65-2.17,7.77-3.44,11.97-3.8c5.89-0.5,11.96,0.79,17.18,3.92 c4.25,2.55,7.9,6.31,10.41,11.29c1.18-0.19,2.37-0.28,3.55-0.27c4.98,0.03,9.78,1.82,13.56,5.89c0.79,0.85,1.54,1.82,2.24,2.89 c2.37,3.65,3.59,8.52,3.53,13.28c-0.05,4.67-1.32,9.33-3.89,12.76c-1.68,2.23-3.84,4.05-6.42,5.5c-2.49,1.4-5.39,2.45-8.66,3.21 l-0.61,0.07H87.93c-0.21,0.33-0.46,0.69-0.76,1.09c-1.68,2.23-3.84,4.05-6.42,5.5c-2.49,1.4-5.39,2.45-8.66,3.21l-0.61,0.07H17.33 l-0.34-0.03c-1.98-0.25-3.78-0.72-5.4-1.39c-1.67-0.69-3.16-1.59-4.48-2.69H7.1c-1.24-1.04-2.33-2.22-3.26-3.5 C1.37,57.5,0.03,53.33,0,49.18c-0.03-4.19,1.28-8.37,4.09-11.75c0.91-1.1,1.98-2.1,3.21-2.99c1.43-1.04,3.07-1.91,4.92-2.63 c1.28-0.5,2.63-0.91,4.08-1.24c0.61-2.45,1.49-4.67,2.58-6.68c3-5.53,7.61-9.45,12.9-11.71c5.23-2.24,11.12-2.85,16.73-1.78 C49.8,10.64,51.08,10.97,52.33,11.39L52.33,11.39z M63.2,8.59c-2.19,1.3-4.17,3-5.8,5.09c2.42,1.4,4.66,3.21,6.64,5.42 c1.59,1.78,2.99,3.81,4.14,6.09c3.19-0.5,6.42-0.33,9.44,0.66c3.81,1.25,7.27,3.77,9.92,7.85c2.09,3.21,3.28,7.36,3.5,11.55 c0.14,2.68-0.11,5.4-0.79,7.94h12.76c2.62-0.63,4.93-1.48,6.89-2.58c1.95-1.09,3.54-2.42,4.74-4.01c1.85-2.47,2.76-5.96,2.8-9.54 c0.04-3.76-0.87-7.53-2.66-10.27c-0.51-0.79-1.07-1.5-1.67-2.14c-2.67-2.88-6.07-4.14-9.6-4.16c-2.56-0.02-5.2,0.6-7.71,1.71 c-0.56,0.27-1.12,0.58-1.67,0.9c-1.67,0.98-3.32,2.17-4.99,3.54l-3.58-4.11c1.24-1.15,2.58-2.2,4-3.12 c1.14-0.74,2.32-1.4,3.54-1.96c0.49-0.24,0.98-0.47,1.48-0.69c-1.99-3.51-4.7-6.19-7.8-8.05c-4.2-2.52-9.13-3.56-13.94-3.15 C69.45,5.84,66.14,6.86,63.2,8.59L63.2,8.59z M83.81,54.9c0.06-0.14,0.12-0.27,0.2-0.4c1.24-2.59,1.75-5.79,1.58-8.97 c-0.17-3.28-1.07-6.47-2.63-8.87c-1.92-2.94-4.36-4.75-7.04-5.63c-3.06-1.01-6.47-0.84-9.75,0.2c-0.77,0.24-1.53,0.54-2.28,0.88 c-0.71,0.35-1.41,0.74-2.11,1.17c-1.46,0.9-2.93,1.98-4.45,3.23l-3.58-4.11c1.56-1.45,3.28-2.73,5.09-3.8 c0.84-0.5,1.71-0.95,2.6-1.36c0.44-0.22,0.89-0.43,1.34-0.62c-0.82-1.45-1.75-2.75-2.78-3.9c-1.7-1.91-3.7-3.45-5.87-4.63 c-2.09-1.14-4.33-1.92-6.61-2.35c-4.57-0.87-9.35-0.38-13.59,1.44c-4.19,1.8-7.85,4.91-10.23,9.3c-1.1,2.04-1.94,4.34-2.42,6.9 l-0.35,1.86l-1.85,0.33c-1.82,0.32-3.44,0.76-4.86,1.31c-1.38,0.54-2.61,1.19-3.68,1.97c-0.86,0.62-1.6,1.32-2.23,2.07 c-1.95,2.34-2.86,5.27-2.83,8.23c0.02,3.01,1,6.05,2.81,8.55c0.67,0.93,1.45,1.78,2.34,2.52l0,0.01c0.89,0.74,1.91,1.36,3.06,1.83 c1.13,0.47,2.39,0.8,3.77,1H71.2c2.62-0.63,4.93-1.48,6.89-2.58c1.95-1.09,3.54-2.42,4.74-4.01c0.16-0.21,0.35-0.49,0.56-0.84 C83.55,55.35,83.7,55.11,83.81,54.9L83.81,54.9z"/></g></svg>