<svg xmlns="http://www.w3.org/2000/svg" shape-rendering="geometricPrecision" text-rendering="geometricPrecision" image-rendering="optimizeQuality" fill-rule="evenodd" clip-rule="evenodd" viewBox="0 0 512 307.42"><g fill-rule="nonzero"><path fill="#919191" d="M488.15 227.15c8.59.08 10.71 4.88 10.71 10.79 0 5.96-2.15 10.79-10.91 10.79H29.55c-8.77 0-10.92-4.83-10.92-10.79 0-5.91 2.12-10.71 10.71-10.79h458.81zm-223.97 80.27c-8.76 0-10.91-4.83-10.91-10.79 0-5.96 2.15-10.79 10.91-10.79h236.9c8.77 0 10.92 4.83 10.92 10.79 0 5.96-2.15 10.79-10.92 10.79h-236.9zm-253.26 0C2.15 307.42 0 302.59 0 296.63c0-5.96 2.15-10.79 10.92-10.79h122.97c8.77 0 10.92 4.83 10.92 10.79 0 5.96-2.15 10.79-10.92 10.79H10.92z"/><path fill="#F8B62D" d="M82.23 192.69c-6.5 0-11.78-5.27-11.78-11.78s5.28-11.78 11.78-11.78h30.18c6.51 0 11.78 5.27 11.78 11.78s-5.27 11.78-11.78 11.78H82.23zm171.56-113c28.97 0 55.18 12.29 74.16 32.17 18.97 19.89 30.71 47.36 30.71 77.69 0 8.08-.83 15.95-2.41 23.53H151.28h.06c-1.58-7.58-2.42-15.45-2.42-23.53 0-30.34 11.73-57.8 30.72-77.69 18.98-19.87 45.2-32.17 74.15-32.17zm-93.85-40.26c-3.26-5.6-1.33-12.8 4.28-16.06 5.6-3.25 12.8-1.34 16.05 4.28l15.1 26.13c3.25 5.61 1.33 12.8-4.28 16.06-5.61 3.25-12.8 1.34-16.06-4.28l-15.09-26.13zm84.5-27.65c0-6.51 5.27-11.78 11.78-11.78S268 5.27 268 11.78v30.17c0 6.51-5.27 11.78-11.78 11.78s-11.78-5.27-11.78-11.78V11.78zm87.07 18.35c3.23-5.61 10.39-7.55 16.01-4.33 5.61 3.23 7.55 10.39 4.33 16.02l-15.1 26.12c-3.22 5.61-10.39 7.55-16.01 4.32-5.61-3.22-7.55-10.38-4.32-16.01l15.09-26.12zm66.19 59.35c5.6-3.25 12.8-1.33 16.05 4.28 3.26 5.61 1.35 12.8-4.27 16.06l-26.13 15.09c-5.61 3.26-12.8 1.33-16.06-4.27-3.25-5.61-1.34-12.81 4.28-16.06l26.13-15.1zm-297.12 16.14c-5.6-3.23-7.54-10.39-4.32-16.01 3.22-5.61 10.39-7.55 16.01-4.33l26.13 15.1c5.6 3.22 7.55 10.39 4.32 16.01-3.22 5.61-10.39 7.55-16.01 4.32l-26.13-15.09zm324.77 68.37c6.51 0 11.78 5.27 11.78 11.78 0 6.5-5.27 11.77-11.78 11.77h-30.17c-6.51 0-11.78-5.27-11.78-11.77 0-6.51 5.27-11.78 11.78-11.78h30.17z"/></g></svg>